PathFileType	4	(X/Y/Z)	 s11c0001.trc
DataRate	CameraRate	NumFrames	NumMarkers	Units	OrigDataRate	OrigDataStartFrame	OrigNumFrames
200	200	7	49	mm	200	1751	2000
Frame#	Time	racr			lacr			c7			jug			rlel			rdr			llel			ldr			s2			lic			ric			lasi			rasi			rpsi			lpsi			rgt			lgt			rth1			rth2			rth3			rth4			rlfc			rmfc			rsh1			rsh2			rsh3			rsh4			rlmal			rmmal			rcal			rtoe			rmt5			rmt1			lth1			lth2			lth4			lth3			llfc			lmfc			llmal			lmmal			lcal			lmt1			lmt5			lsh1			lsh2			lsh3			lsh4			ltoe			
		X1	Y1	Z1	X2	Y2	Z2	X3	Y3	Z3	X4	Y4	Z4	X5	Y5	Z5	X6	Y6	Z6	X7	Y7	Z7	X8	Y8	Z8	X9	Y9	Z9	X10	Y10	Z10	X11	Y11	Z11	X12	Y12	Z12	X13	Y13	Z13	X14	Y14	Z14	X15	Y15	Z15	X16	Y16	Z16	X17	Y17	Z17	X18	Y18	Z18	X19	Y19	Z19	X20	Y20	Z20	X21	Y21	Z21	X22	Y22	Z22	X23	Y23	Z23	X24	Y24	Z24	X25	Y25	Z25	X26	Y26	Z26	X27	Y27	Z27	X28	Y28	Z28	X29	Y29	Z29	X30	Y30	Z30	X31	Y31	Z31	X32	Y32	Z32	X33	Y33	Z33	X34	Y34	Z34	X35	Y35	Z35	X36	Y36	Z36	X37	Y37	Z37	X38	Y38	Z38	X39	Y39	Z39	X40	Y40	Z40	X41	Y41	Z41	X42	Y42	Z42	X43	Y43	Z43	X44	Y44	Z44	X45	Y45	Z45	X46	Y46	Z46	X47	Y47	Z47	X48	Y48	Z48	X49	Y49	Z49	
1751	8.7550	479.160268	1572.213896	591.747363	450.644359	1597.423670	178.283327	383.882646	1620.395950	384.903828	547.877316	1562.004498	367.329070	479.400143	1313.648138	741.863327	608.111736	1086.922146	888.572992	423.286718	1302.552479	47.397570	548.834669	1064.520235	-130.651182	337.737107	1074.878419	391.558157	507.243441	1163.598769	175.198634	549.232425	1152.783457	565.728055	573.569840	1110.284642	204.447775	605.114694	1113.269567	520.174514	358.985975	1130.228131	446.442586	346.249311	1126.957422	343.620043	503.293733	961.347333	587.860700	440.202002	991.956140	173.133803	513.793918	833.881848	585.108283	534.478615	750.925845	559.684978	510.945776	668.780335	541.308783	568.418459	753.961772	547.438747	507.265779	563.233035	516.148930	502.095620	545.911888	396.586497	462.229270	413.840858	538.642154	477.519420	327.543385	524.740833	447.957443	244.837931	524.639181	503.762403	327.295807	495.803202	431.431849	108.565460	513.427741	463.328875	122.683676	425.942799	386.722392	80.252031	459.326225	667.357773	91.407726	518.991469	590.803016	54.195790	573.909848	609.768689	58.685789	458.457247	469.925212	858.914095	153.405056	489.576396	776.879707	168.278681	525.921844	775.741031	174.080712	463.815335	692.293467	182.581472	459.170216	550.228786	212.691990	472.993507	540.424178	338.827491	405.704578	117.261820	223.351699	436.514730	133.523965	297.634299	369.116252	68.519054	259.863811	592.818756	56.202825	292.014073	569.940417	55.411664	175.022775	422.457976	427.078720	191.873082	441.216714	343.343939	199.087028	415.770063	258.754539	202.701528	472.954177	343.911355	221.451532	660.119138	95.724908	244.011116	
1752	8.7600	479.177883	1572.204871	591.748517	450.657271	1597.444980	178.272555	383.882646	1620.395937	384.903831	547.892787	1562.031342	367.337936	479.418139	1313.625477	741.860532	608.090580	1086.905485	888.553222	423.310735	1302.573048	47.395507	548.844108	1064.543833	-130.662873	337.692937	1074.882217	391.564411	507.240974	1163.602655	175.160183	549.230344	1152.805335	565.725948	573.582615	1110.276356	204.455980	605.101520	1113.266381	520.187192	358.956694	1130.251009	446.459582	346.251274	1126.937427	343.611515	503.277351	961.340860	587.867525	440.180637	991.956894	173.160444	513.776297	833.885728	585.102774	534.456389	750.933325	559.693183	510.940318	668.780658	541.319205	568.412226	753.975995	547.443411	507.265815	563.251591	516.171732	502.095147	545.917476	396.584685	462.243543	413.833226	538.644996	477.474579	327.537798	524.741722	447.942734	244.835683	524.623729	503.765927	327.305520	495.809705	431.428744	108.572444	513.422366	463.327648	122.723058	425.923633	386.740233	80.237615	459.295280	667.348664	91.399786	519.004008	590.832041	54.180462	573.918750	609.785498	58.690735	458.460748	469.920274	858.919049	153.388522	489.592599	776.879862	168.329845	525.936666	775.746159	174.109061	463.808898	692.287538	182.598216	459.149440	550.239098	212.698567	473.005644	540.430960	338.821620	405.743420	117.247762	223.366273	436.521876	133.513202	297.631920	369.117066	68.531538	259.868888	592.821408	56.191097	292.018876	569.933062	55.413256	175.018400	422.472321	427.070179	191.888182	441.205425	343.342021	199.078957	415.759566	258.755729	202.688228	472.967433	343.915264	221.449487	660.136678	95.717776	244.019573	
1753	8.7650	479.187927	1572.197517	591.733688	450.642548	1597.445411	178.244970	383.899979	1620.413977	384.928870	547.893511	1562.034891	367.296213	479.430415	1313.627869	741.837409	608.086621	1086.865706	888.510768	423.308292	1302.597772	47.349847	548.844358	1064.579602	-130.712345	337.717329	1074.868939	391.537244	507.225563	1163.600837	175.156988	549.220707	1152.823253	565.704145	573.542173	1110.282127	204.435655	605.079830	1113.273002	520.166502	358.927414	1130.273887	446.476578	346.251390	1126.936293	343.613447	503.257067	961.342130	587.842617	440.167959	991.943285	173.143972	513.764580	833.897474	585.099995	534.449251	750.933890	559.697596	510.923918	668.789061	541.319357	568.393940	753.956525	547.445943	507.230375	563.223445	516.153826	502.081136	545.922478	396.599150	462.230503	413.842424	538.646193	477.469937	327.507853	524.723770	447.924810	244.871280	524.617417	503.766255	327.324245	495.809893	431.420552	108.571559	513.422583	463.319632	122.698646	425.938390	386.723736	80.251668	459.315028	667.337361	91.394298	518.990539	590.821842	54.199970	573.921173	609.791187	58.682494	458.456942	469.923567	858.909010	153.406053	489.561837	776.887293	168.305318	525.924949	775.726018	174.109199	463.805294	692.289685	182.587306	459.154978	550.230410	212.702150	472.994799	540.421811	338.822940	405.743157	117.247071	223.365701	436.506366	133.521330	297.637158	369.113681	68.527739	259.875474	592.817225	56.197794	292.017176	569.954685	55.399680	175.017858	422.471592	427.061950	191.886958	441.221961	343.357302	199.079814	415.770190	258.755949	202.695631	472.966680	343.884351	221.461315	660.138425	95.706258	244.015651	
1754	8.7700	479.203936	1572.196825	591.734542	450.586441	1597.558920	178.244774	383.881675	1620.409958	384.905238	547.892299	1562.051143	367.295396	479.443234	1313.616417	741.828729	608.063062	1086.851493	888.496938	423.297658	1302.628653	47.338479	548.834393	1064.600179	-130.748553	337.711165	1074.876874	391.559097	507.174927	1163.623819	175.150588	549.188882	1152.808800	565.707478	573.515757	1110.285638	204.406959	605.046666	1113.283620	520.179403	358.932842	1130.286905	446.444572	346.244779	1126.925166	343.604065	503.254955	961.353079	587.857141	440.150625	991.937068	173.140164	513.750276	833.887811	585.114969	534.443126	750.934639	559.703979	510.920179	668.787210	541.326193	568.390505	753.964123	547.447907	507.242360	563.220559	516.173485	502.081615	545.921250	396.606859	462.218716	413.841362	538.655469	477.510089	327.555038	524.734944	447.927945	244.825557	524.627785	503.776304	327.315485	495.811047	431.431587	108.570284	513.433650	463.298589	122.697025	425.932819	386.732217	80.230667	459.308491	667.333178	91.415023	518.975632	590.863748	54.219082	573.928888	609.788962	58.693090	458.465535	469.888201	858.906141	153.393088	489.577326	776.893130	168.306579	525.910330	775.725997	174.113762	463.800861	692.282679	182.588472	459.139996	550.223687	212.695100	472.988701	540.429005	338.830200	405.724555	117.270489	223.346143	436.514382	133.517467	297.640111	369.115640	68.530842	259.870770	592.822434	56.205803	292.023255	569.950277	55.402380	175.012024	422.453439	427.083601	191.878365	441.212148	343.342862	199.073513	415.759366	258.741881	202.694522	472.941393	343.886527	221.450257	660.120311	95.722778	244.018226	
1755	8.7750	479.199720	1572.187072	591.725923	450.584636	1597.581362	178.244936	383.888375	1620.416422	384.870565	547.887770	1562.060057	367.278594	479.454262	1313.595517	741.805644	608.063198	1086.824011	888.459678	423.310851	1302.641590	47.322405	548.837844	1064.630207	-130.770632	337.691269	1074.882816	391.559560	507.162338	1163.619090	175.145835	549.181472	1152.826390	565.703169	573.477456	1110.286662	204.430792	605.044127	1113.306439	520.169137	358.908080	1130.282508	446.462700	346.246221	1126.921573	343.603888	503.243257	961.351707	587.853365	440.142185	991.935732	173.166538	513.730886	833.890506	585.111163	534.416036	750.962163	559.689687	510.904977	668.785248	541.314694	568.368078	753.964542	547.447836	507.240890	563.254958	516.178643	502.111880	545.934783	396.617712	462.222928	413.844119	538.651713	477.457335	327.530025	524.727550	447.929507	244.864512	524.632632	503.750811	327.301778	495.802866	431.423567	108.557605	513.426179	463.333635	122.725160	425.939344	386.728401	80.245063	459.293899	667.348744	91.404585	518.994256	590.850156	54.209420	573.928588	609.790578	58.678810	458.460244	469.881047	858.903747	153.404756	489.546727	776.901619	168.281352	525.893630	775.749232	174.085371	463.783161	692.294398	182.583822	459.117691	550.222018	212.698121	472.994796	540.421816	338.822932	405.722203	117.264793	223.349499	436.502197	133.511499	297.630177	369.093145	68.535242	259.865817	592.833217	56.195329	292.013020	569.951521	55.404548	175.032572	422.440983	427.069666	191.874212	441.215132	343.353339	199.088717	415.755163	258.747482	202.692248	472.947761	343.912247	221.457259	660.136327	95.722807	244.023260	
1756	8.7800	479.199986	1572.180702	591.726332	450.629264	1597.514395	178.230498	383.881659	1620.426428	384.902978	547.908114	1562.072202	367.281778	479.455378	1313.577275	741.778918	608.052481	1086.804331	888.434987	423.332436	1302.663252	47.328103	548.847735	1064.648044	-130.799490	337.682777	1074.875605	391.575365	507.164498	1163.610097	175.142400	549.179391	1152.848268	565.701061	573.474456	1110.295066	204.432229	605.030094	1113.310164	520.192014	358.905821	1130.296144	446.462134	346.238297	1126.950251	343.606745	503.219350	961.353816	587.865155	440.137317	991.948675	173.171922	513.725531	833.894808	585.108972	534.406558	750.966517	559.716304	510.894276	668.780966	541.314401	568.362253	753.954441	547.456009	507.229352	563.245501	516.159047	502.079751	545.940616	396.603007	462.227439	413.843722	538.668394	477.506244	327.548484	524.730921	447.903779	244.858570	524.623566	503.758393	327.317470	495.820424	431.446123	108.580391	513.433401	463.321991	122.676241	425.945029	386.728030	80.257825	459.315863	667.364992	91.381107	518.996605	590.884657	54.223509	573.947014	609.787712	58.680752	458.468739	469.882060	858.907813	153.416172	489.547894	776.890550	168.281380	525.896197	775.742685	174.109724	463.780033	692.286994	182.604858	459.112945	550.220073	212.698081	472.996595	540.446894	338.827843	405.722028	117.264159	223.349114	436.535956	133.538791	297.640855	369.118717	68.529374	259.877308	592.818448	56.198378	292.016188	569.955121	55.412443	175.027075	422.467870	427.061228	191.882496	441.206470	343.345625	199.083655	415.763481	258.754559	202.703877	472.955192	343.912319	221.451454	660.133000	95.711694	244.013159	
1757	8.7850	479.222755	1572.176593	591.701312	450.589162	1597.533428	178.201373	383.888375	1620.416411	384.870567	547.915958	1562.088713	367.243164	479.470844	1313.578490	741.773066	608.052228	1086.784654	888.387868	423.325416	1302.669513	47.294824	548.843894	1064.686688	-130.853059	337.670343	1074.886162	391.569690	507.126336	1163.619522	175.152697	549.186978	1152.862186	565.705802	573.465606	1110.308831	204.409408	605.009184	1113.315308	520.161500	358.878801	1130.305384	446.479696	346.244531	1126.931353	343.594140	503.227601	961.353423	587.870318	440.120397	991.935884	173.186027	513.719658	833.893753	585.127121	534.433000	750.942743	559.700216	510.877410	668.798302	541.318884	568.357219	753.961578	547.437327	507.230236	563.240085	516.178108	502.049171	545.903229	396.590958	462.206943	413.846150	538.658231	477.472805	327.547793	524.726330	447.920868	244.840582	524.624774	503.756785	327.318036	495.798212	431.416508	108.566065	513.421163	463.321933	122.686560	425.931298	386.736736	80.238975	459.298671	667.342498	91.396059	518.989190	590.894865	54.233977	573.949751	609.787788	58.688786	458.456862	469.858518	858.922542	153.400490	489.534554	776.887591	168.306247	525.899976	775.725050	174.167387	463.779130	692.293545	182.592952	459.120208	550.227518	212.695116	472.967048	540.432589	338.811093	405.721212	117.263320	223.363862	436.502676	133.508957	297.630222	369.121261	68.525228	259.881176	592.821700	56.194579	292.021716	569.952109	55.395415	175.023961	422.446220	427.074406	191.877656	441.202084	343.340404	199.076730	415.772428	258.746335	202.690852	472.947103	343.916891	221.469111	660.122923	95.712814	244.019309	
